{
  "accessors": [
    {
      "name": "Box002_1_0_positions",
      "componentType": 5126,
      "count": 2928,
      "min": [
        -488.3539123535156,
        -0.41339999437332153,
        -450.4753112792969
      ],
      "max": [
        488.35400390625,
        114.58660125732422,
        436.2253112792969
      ],
      "type": "VEC3",
      "bufferView": 0,
      "byteOffset": 0
    },
    {
      "name": "Box002_1_0_texcoords",
      "componentType": 5126,
      "count": 2928,
      "min": [
        0.021400000900030136,
        0.025200000032782555
      ],
      "max": [
        0.978600025177002,
        0.9990000128746033
      ],
      "type": "VEC2",
      "bufferView": 1,
      "byteOffset": 0
    },
    {
      "name": "Box002_1_0_indices",
      "componentType": 5123,
      "count": 14400,
      "min": [
        0
      ],
      "max": [
        2927
      ],
      "type": "SCALAR",
      "bufferView": 2,
      "byteOffset": 0
    },
    {
      "name": "Box001_1_0_positions",
      "componentType": 5126,
      "count": 23230,
      "min": [
        -509.6330871582031,
        106.88030242919922,
        -473.88861083984375
      ],
      "max": [
        509.6330871582031,
        752.3228149414062,
        465.6726989746094
      ],
      "type": "VEC3",
      "bufferView": 0,
      "byteOffset": 35136
    },
    {
      "name": "Box001_1_0_texcoords",
      "componentType": 5126,
      "count": 23230,
      "min": [
        0.0020000000949949026,
        0.0012000000569969416
      ],
      "max": [
        0.9980000257492065,
        0.9843999743461609
      ],
      "type": "VEC2",
      "bufferView": 1,
      "byteOffset": 23424
    },
    {
      "name": "Box001_1_0_indices",
      "componentType": 5123,
      "count": 113898,
      "min": [
        0
      ],
      "max": [
        23229
      ],
      "type": "SCALAR",
      "bufferView": 2,
      "byteOffset": 28800
    },
    {
      "name": "Object005_1_0_positions",
      "componentType": 5126,
      "count": 1856,
      "min": [
        -315.1271057128906,
        110.94309997558594,
        -282.7947082519531
      ],
      "max": [
        315.1271057128906,
        241.2823944091797,
        455.0703125
      ],
      "type": "VEC3",
      "bufferView": 0,
      "byteOffset": 313896
    },
    {
      "name": "Object005_1_0_texcoords",
      "componentType": 5126,
      "count": 1856,
      "min": [
        0.02449999935925007,
        0.20360000431537628
      ],
      "max": [
        0.9754999876022339,
        0.9779999852180481
      ],
      "type": "VEC2",
      "bufferView": 1,
      "byteOffset": 209264
    },
    {
      "name": "Object005_1_0_indices",
      "componentType": 5123,
      "count": 9888,
      "min": [
        0
      ],
      "max": [
        1855
      ],
      "type": "SCALAR",
      "bufferView": 2,
      "byteOffset": 256596
    },
    {
      "name": "Object006_1_0_positions",
      "componentType": 5126,
      "count": 3468,
      "min": [
        -118.66840362548828,
        584.594482421875,
        -248.77850341796875
      ],
      "max": [
        118.66840362548828,
        604.2905883789062,
        -246.77850341796875
      ],
      "type": "VEC3",
      "bufferView": 0,
      "byteOffset": 336168
    },
    {
      "name": "Object006_1_0_texcoords",
      "componentType": 5126,
      "count": 3468,
      "min": [
        0.2378000020980835,
        0.19699999690055847
      ],
      "max": [
        0.7621999979019165,
        0.23989999294281006
      ],
      "type": "VEC2",
      "bufferView": 1,
      "byteOffset": 224112
    },
    {
      "name": "Object006_1_0_indices",
      "componentType": 5123,
      "count": 17952,
      "min": [
        0
      ],
      "max": [
        3467
      ],
      "type": "SCALAR",
      "bufferView": 2,
      "byteOffset": 276372
    },
    {
      "name": "Object004_1_0_positions",
      "componentType": 5126,
      "count": 9060,
      "min": [
        -294.5469055175781,
        241.30580139160156,
        -252.0570068359375
      ],
      "max": [
        294.5469055175781,
        478.92010498046875,
        473.88861083984375
      ],
      "type": "VEC3",
      "bufferView": 0,
      "byteOffset": 377784
    },
    {
      "name": "Object004_1_0_texcoords",
      "componentType": 5126,
      "count": 9060,
      "min": [
        0.027000000700354576,
        0.2362000048160553
      ],
      "max": [
        0.9729999899864197,
        0.9976999759674072
      ],
      "type": "VEC2",
      "bufferView": 1,
      "byteOffset": 251856
    },
    {
      "name": "Object004_1_0_indices",
      "componentType": 5123,
      "count": 43200,
      "min": [
        0
      ],
      "max": [
        9059
      ],
      "type": "SCALAR",
      "bufferView": 2,
      "byteOffset": 312276
    }
  ],
  "asset": {
    "generator": "obj2gltf",
    "version": "2.0"
  },
  "buffers": [
    {
      "name": "Armchair Opera contemporary Igor N161020",
      "byteLength": 2443496,
      "uri": "data:application/octet-stream;base64,"
    }
  ],
  "bufferViews": [
    {
      "name": "bufferView_0",
      "buffer": 0,
      "byteLength": 486504,
      "byteOffset": 0,
      "byteStride": 12,
      "target": 34962
    },
    {
      "name": "bufferView_1",
      "buffer": 0,
      "byteLength": 324336,
      "byteOffset": 486504,
      "byteStride": 8,
      "target": 34962
    },
    {
      "name": "bufferView_2",
      "buffer": 0,
      "byteLength": 398676,
      "byteOffset": 810840,
      "target": 34963
    },
    {
      "buffer": 0,
      "byteOffset": 1209516,
      "byteLength": 210422
    },
    {
      "buffer": 0,
      "byteOffset": 1419938,
      "byteLength": 819287
    },
    {
      "buffer": 0,
      "byteOffset": 2239225,
      "byteLength": 204271
    }
  ],
  "images": [
    {
      "name": "Wood 768",
      "mimeType": "image/jpeg",
      "bufferView": 3
    },
    {
      "name": "fabric_1",
      "mimeType": "image/jpeg",
      "bufferView": 4
    },
    {
      "name": "metalwhi",
      "mimeType": "image/jpeg",
      "bufferView": 5
    }
  ],
  "materials": [
    {
      "name": "wood",
      "pbrMetallicRoughness": {
        "baseColorTexture": {
          "index": 0
        },
        "baseColorFactor": [
          1,
          1,
          1,
          1
        ],
        "metallicFactor": 0,
        "roughnessFactor": 0.9299999999999999
      },
      "emissiveFactor": [
        0,
        0,
        0
      ],
      "alphaMode": "OPAQUE",
      "doubleSided": false
    },
    {
      "name": "st_textile",
      "pbrMetallicRoughness": {
        "baseColorTexture": {
          "index": 1
        },
        "baseColorFactor": [
          1,
          1,
          1,
          1
        ],
        "metallicFactor": 0,
        "roughnessFactor": 0.99
      },
      "emissiveFactor": [
        0,
        0,
        0
      ],
      "alphaMode": "OPAQUE",
      "doubleSided": false
    },
    {
      "name": "white_st",
      "pbrMetallicRoughness": {
        "baseColorTexture": {
          "index": 2
        },
        "baseColorFactor": [
          1,
          1,
          1,
          1
        ],
        "metallicFactor": 0,
        "roughnessFactor": 0.9299999999999999
      },
      "emissiveFactor": [
        0,
        0,
        0
      ],
      "alphaMode": "OPAQUE",
      "doubleSided": false
    }
  ],
  "meshes": [
    {
      "name": "Box002_1",
      "primitives": [
        {
          "attributes": {
            "POSITION": 0,
            "TEXCOORD_0": 1
          },
          "indices": 2,
          "material": 0,
          "mode": 4
        }
      ]
    },
    {
      "name": "Box001_1",
      "primitives": [
        {
          "attributes": {
            "POSITION": 3,
            "TEXCOORD_0": 4
          },
          "indices": 5,
          "material": 1,
          "mode": 4
        }
      ]
    },
    {
      "name": "Object005_1",
      "primitives": [
        {
          "attributes": {
            "POSITION": 6,
            "TEXCOORD_0": 7
          },
          "indices": 8,
          "material": 1,
          "mode": 4
        }
      ]
    },
    {
      "name": "Object006_1",
      "primitives": [
        {
          "attributes": {
            "POSITION": 9,
            "TEXCOORD_0": 10
          },
          "indices": 11,
          "material": 2,
          "mode": 4
        }
      ]
    },
    {
      "name": "Object004_1",
      "primitives": [
        {
          "attributes": {
            "POSITION": 12,
            "TEXCOORD_0": 13
          },
          "indices": 14,
          "material": 1,
          "mode": 4
        }
      ]
    }
  ],
  "nodes": [
    {
      "name": "Box002",
      "mesh": 0
    },
    {
      "name": "Box001",
      "mesh": 1
    },
    {
      "name": "Object005",
      "mesh": 2
    },
    {
      "name": "Object006",
      "mesh": 3
    },
    {
      "name": "Object004",
      "mesh": 4
    }
  ],
  "samplers": [
    {
      "magFilter": 9729,
      "minFilter": 9986,
      "wrapS": 10497,
      "wrapT": 10497
    }
  ],
  "scene": 0,
  "scenes": [
    {
      "nodes": [
        0,
        1,
        2,
        3,
        4
      ]
    }
  ],
  "textures": [
    {
      "name": "Wood 768",
      "sampler": 0,
      "source": 0
    },
    {
      "name": "fabric_1",
      "sampler": 0,
      "source": 1
    },
    {
      "name": "metalwhi",
      "sampler": 0,
      "source": 2
    }
  ]
}
